<svg width="59" height="59" viewBox="0 0 59 59" fill="none" xmlns="http://www.w3.org/2000/svg">
<path fill-rule="evenodd" clip-rule="evenodd" d="M47.5386 19.3059L47.1626 12.196C47.0918 10.862 46.8712 9.66097 45.9265 8.71638C44.982 7.77178 43.7811 7.55091 42.4469 7.48033L30.1972 6.83238C29.7098 6.80666 29.2804 6.97135 28.9352 7.31655L3.13655 33.1153C2.48987 33.762 2.48987 34.817 3.13655 35.4636L19.1793 51.5065C19.8261 52.1532 20.8811 52.1533 21.5278 51.5065L28.7576 44.2768C28.9307 44.1038 29.1653 44.0067 29.41 44.0067C29.6547 44.0067 29.8894 44.1038 30.0625 44.2768C30.2354 44.4498 30.3325 44.6845 30.3325 44.9292C30.3325 45.1738 30.2354 45.4085 30.0625 45.5815L22.8327 52.8113C21.4673 54.1768 19.2401 54.1768 17.8745 52.8116L1.83153 36.7684C0.466312 35.403 0.466312 33.176 1.83153 31.8105L27.6303 6.01165C28.3591 5.28285 29.2655 4.93523 30.2946 4.98967L42.5445 5.6375C44.0607 5.71778 45.4252 6.00865 46.5816 6.85383C47.3445 6.69474 48.1218 6.61496 48.9011 6.61578C53.9883 6.61578 58.0131 9.96004 58.0131 13.9313C58.0131 17.7482 54.2946 20.9862 49.4885 21.2317L49.6533 24.3484C49.6661 24.5928 49.5814 24.8322 49.4178 25.0141C49.2542 25.196 49.025 25.3055 48.7807 25.3185C48.5363 25.3314 48.2969 25.2466 48.115 25.083C47.9331 24.9194 47.8235 24.6902 47.8105 24.4459L47.6376 21.177C44.8367 20.8645 42.4668 19.5286 41.086 17.6812C40.9616 17.6934 40.8368 17.6995 40.7118 17.6995C38.6305 17.6995 36.9435 16.0124 36.9435 13.9313C36.9435 11.8504 38.6305 10.1631 40.7118 10.1631C42.7929 10.1631 44.4799 11.8501 44.4799 13.9313C44.4799 15.2043 43.8487 16.3299 42.8821 17.0121C43.9515 18.1957 45.6203 19.0335 47.5386 19.3059ZM48.0757 8.49632C48.7025 9.55486 48.9349 10.7684 49.0054 12.0984L49.391 19.3892C53.1299 19.2025 56.1678 16.8938 56.1678 13.9313C56.1678 10.8402 52.8608 8.46114 48.9011 8.46114C48.6256 8.46107 48.3502 8.4728 48.0757 8.49632ZM41.9077 15.437C42.1347 15.2571 42.3179 15.0282 42.4438 14.7674C42.5697 14.5067 42.635 14.2208 42.6347 13.9313C42.6347 12.8694 41.7737 12.0085 40.7118 12.0085C39.6497 12.0085 38.7888 12.8694 38.7888 13.9313C38.7888 14.7703 39.3262 15.4839 40.0758 15.7464C39.8862 15.16 39.7895 14.5476 39.789 13.9314C39.7889 13.4221 40.2024 13.0087 40.7116 13.0086C41.2208 13.0086 41.6343 13.4221 41.6343 13.9313C41.6343 14.4455 41.727 14.9555 41.9077 15.437ZM31.2467 39.0366C29.8883 39.6277 28.3908 39.9557 26.8195 39.9557C20.6786 39.9557 15.6675 34.9446 15.6675 28.8037C15.6675 22.6628 20.6786 17.6517 26.8195 17.6517C31.948 17.6517 36.2885 21.147 37.5802 25.8764C38.9539 24.8427 40.6514 24.2299 42.4821 24.2299C47.0172 24.2299 50.732 27.9902 50.732 32.5938V34.7962H51.4541C52.6985 34.7962 53.7144 35.8189 53.7144 37.0767V51.5558C53.7144 52.8188 52.6985 53.8362 51.4541 53.8362H33.5101C32.2664 53.8362 31.2467 52.8182 31.2467 51.5558V39.0366ZM36.0209 27.4054C35.3429 22.9395 31.4691 19.4971 26.8195 19.4971C21.6948 19.4971 17.5128 23.679 17.5128 28.8037C17.5128 33.9284 21.6948 38.1104 26.8195 38.1104C28.3669 38.1119 29.89 37.7245 31.2486 36.9837C31.2975 35.7694 32.2972 34.7962 33.5101 34.7962H34.2292V32.5938C34.2292 30.6373 34.9007 28.8333 36.0209 27.4054ZM48.8867 34.7962V32.5938C48.8867 29.0127 46.0098 26.0752 42.4821 26.0752C38.9544 26.0752 36.0746 29.0126 36.0746 32.5938V34.7962H37.5871V32.5938C37.5871 29.8687 39.8015 27.6355 42.4821 27.6355C45.1627 27.6355 47.3772 29.8687 47.3772 32.5938V34.7962H48.8867ZM39.4324 34.7962H45.5318V32.5938C45.5318 30.8893 44.1587 29.4809 42.4821 29.4809C40.8055 29.4809 39.4324 30.8893 39.4324 32.5938V34.7962ZM33.5101 36.6416C33.2765 36.6416 33.0921 36.8406 33.0921 37.0767V51.5558C33.0921 51.7928 33.2765 51.9908 33.5101 51.9908H51.4541C51.6871 51.9908 51.869 51.7922 51.869 51.5558V37.0767C51.869 36.8412 51.6871 36.6416 51.4541 36.6416H33.5101ZM38.2859 44.7551C37.9258 44.395 37.9258 43.8103 38.2859 43.4503C38.6459 43.0902 39.2307 43.0902 39.5908 43.4503L41.4422 45.3017L45.3704 41.3734C45.7305 41.0133 46.3153 41.0133 46.6754 41.3734C47.0354 41.7335 47.0354 42.3183 46.6754 42.6783L42.0946 47.259C41.9216 47.432 41.6869 47.5292 41.4422 47.5292C41.1975 47.5292 40.9628 47.432 40.7898 47.259L38.2859 44.7551ZM25.8968 22.9539V22.3296C25.8968 21.8204 26.3102 21.4069 26.8195 21.4069C27.3287 21.4069 27.7422 21.8204 27.7422 22.3296V22.9433C28.9642 23.1896 30.1006 23.9561 30.6814 25.3374C30.8787 25.8069 30.6577 26.3482 30.1883 26.5456C29.7189 26.7429 29.1775 26.5221 28.9802 26.0525C28.4245 24.7308 26.9448 24.4594 25.8816 24.878C25.2614 25.1221 24.7662 25.6236 24.8012 26.3519C24.8293 26.9242 25.1977 27.2525 25.6391 27.4683C26.0518 27.6701 26.5289 27.7835 26.9782 27.8574C28.7683 28.1502 30.7402 28.9577 31 31.086L31.0001 31.0873C31.2534 33.1851 29.5266 34.3792 27.7422 34.6781V35.2778C27.7422 35.7872 27.3287 36.2005 26.8195 36.2005C26.3102 36.2005 25.8968 35.7872 25.8968 35.2778V34.6647C24.3714 34.3777 23.0456 33.3943 22.6432 31.7781C22.5842 31.5407 22.6219 31.2895 22.7479 31.0798C22.874 30.8701 23.0782 30.7191 23.3156 30.6598C23.553 30.6008 23.8042 30.6385 24.0139 30.7646C24.2236 30.8907 24.3746 31.0948 24.4339 31.3322C24.7121 32.4497 25.8392 32.9324 26.9309 32.9067C27.5149 32.8928 28.165 32.7467 28.644 32.4165C28.9929 32.1759 29.2291 31.8155 29.1682 31.309C29.0895 30.6664 28.6531 30.3114 28.1439 30.0805C27.686 29.8728 27.1665 29.7581 26.6803 29.6785L26.6793 29.6784C24.931 29.3906 23.0597 28.5202 22.9581 26.4417V26.4412C22.8815 24.8564 23.8563 23.6921 25.2056 23.1608C25.4299 23.0728 25.6611 23.0036 25.8968 22.9539Z" fill="white"/>
</svg>
